<?xml version="1.0" encoding="iso-8859-1"?>
<!-- Generator: Adobe Illustrator 19.0.0, SVG Export Plug-In . SVG Version: 6.00 Build 0)  -->
<svg version="1.1" id="Layer_1" xmlns="http://www.w3.org/2000/svg" xmlns:xlink="http://www.w3.org/1999/xlink" x="0px" y="0px"
	 viewBox="0 0 36.611 50.667" style="enable-background:new 0 0 36.611 50.667;" xml:space="preserve">
<g id="XMLID_117_">
	<path id="XMLID_127_" style="fill:#282828;" d="M35.169,26.581c-1.177-1.522-2.953-2.568-5.329-3.136
		c3.025-1.543,4.354-4.162,3.989-7.856c-0.122-1.34-0.492-2.501-1.112-3.485c-0.62-0.984-1.456-1.776-2.513-2.375
		c-1.055-0.599-2.203-1.056-3.441-1.37c-1.238-0.315-2.659-0.543-4.263-0.685V0h-4.689v7.46c-0.812,0-2.05,0.02-3.714,0.061V0H9.409
		v7.673c-0.67,0.02-1.654,0.031-2.954,0.031L0,7.673v4.994h3.38c1.543,0,2.446,0.69,2.71,2.07v8.739c0.203,0,0.365,0.01,0.487,0.031
		H6.09v12.24C5.927,36.782,5.339,37.3,4.324,37.3H0.944L0,42.873h6.09c0.386,0,0.944,0.005,1.675,0.014
		c0.731,0.01,1.279,0.015,1.644,0.015v7.764h4.69v-7.673c0.852,0.021,2.091,0.031,3.714,0.031v7.642h4.689v-7.764
		c1.665-0.081,3.142-0.232,4.43-0.457c1.289-0.224,2.523-0.574,3.7-1.051c1.177-0.477,2.161-1.071,2.953-1.781
		c0.792-0.71,1.446-1.614,1.965-2.71c0.517-1.096,0.847-2.365,0.989-3.807C36.803,30.276,36.346,28.104,35.169,26.581z
		 M14.189,13.001c0.142,0,0.543-0.005,1.203-0.015c0.66-0.01,1.208-0.02,1.644-0.031c0.437-0.01,1.025,0.015,1.766,0.076
		c0.741,0.061,1.365,0.142,1.872,0.244c0.507,0.101,1.066,0.269,1.675,0.502c0.61,0.233,1.096,0.518,1.461,0.852
		c0.366,0.335,0.675,0.761,0.928,1.279c0.254,0.518,0.381,1.111,0.381,1.781c0,0.568-0.091,1.086-0.274,1.553
		c-0.182,0.467-0.457,0.858-0.822,1.172c-0.365,0.315-0.741,0.589-1.127,0.822c-0.385,0.233-0.878,0.421-1.477,0.563
		c-0.599,0.142-1.121,0.254-1.568,0.335c-0.447,0.081-1.005,0.137-1.675,0.168c-0.67,0.03-1.178,0.051-1.523,0.061
		c-0.345,0.01-0.817,0.01-1.416,0c-0.599-0.01-0.949-0.015-1.051-0.015L14.189,13.001L14.189,13.001L14.189,13.001z M26.994,33.737
		c-0.193,0.467-0.442,0.873-0.746,1.219c-0.305,0.344-0.706,0.649-1.203,0.913c-0.497,0.264-0.98,0.477-1.446,0.639
		c-0.467,0.163-1.031,0.304-1.69,0.427c-0.661,0.122-1.239,0.208-1.737,0.259c-0.497,0.051-1.091,0.091-1.781,0.122
		c-0.69,0.03-1.228,0.045-1.614,0.045c-0.386,0-0.873-0.006-1.462-0.015c-0.589-0.009-0.964-0.015-1.127-0.015V27.038
		c0.162,0,0.644-0.01,1.446-0.031c0.802-0.02,1.456-0.03,1.964-0.03c0.507,0,1.208,0.03,2.102,0.091
		c0.893,0.06,1.644,0.151,2.253,0.273c0.609,0.122,1.273,0.309,1.994,0.564c0.72,0.254,1.304,0.563,1.751,0.928
		c0.447,0.366,0.822,0.832,1.126,1.401c0.305,0.568,0.457,1.218,0.457,1.949C27.283,32.753,27.187,33.269,26.994,33.737z"/>
</g>
</svg>
