<?xml version="1.0" encoding="iso-8859-1"?>
<!-- Generator: Adobe Illustrator 19.0.0, SVG Export Plug-In . SVG Version: 6.00 Build 0)  -->
<svg version="1.1" id="Layer_1" xmlns="http://www.w3.org/2000/svg" xmlns:xlink="http://www.w3.org/1999/xlink" x="0px" y="0px"
	 viewBox="0 0 35.887 55.247" style="enable-background:new 0 0 35.887 55.247;" xml:space="preserve">
<g id="XMLID_588_">
	<path id="XMLID_263_" style="fill:#FFFFFF;stroke:#FFFFFF;stroke-width:3;stroke-miterlimit:10;" d="M34.387,43.812
		c-2,3.227-6.749,5.187-12,5.187c-11.449,0-19.907-9.315-19.907-20.764s8.03-20.764,19.479-20.764
		c5.252,0,10.429,1.961,12.429,5.187v-1.283c-2-3.051-6.805-4.883-12-4.883C10.397,6.492,1.5,16.246,1.5,28.235
		s8.469,21.743,20.458,21.743c5.195,0,10.429-1.832,12.429-4.883V43.812z"/>
	<g id="XMLID_589_">
		<path id="XMLID_234_" style="fill:#FFFFFF;stroke:#FFFFFF;stroke-width:0.5281;stroke-miterlimit:10;" d="M8.95,37.964
			c0,0,1.077-0.128,2.684-0.179c0.802-0.003,1.742-0.061,2.742-0.024c1.001,0.032,1.855,0.085,2.922,0.119
			c1.065,0.087,2.343,0.155,3.341,0.236c0.998,0.079,1.925,0.24,2.722,0.333c1.591,0.232,2.647,0.479,2.647,0.479l-0.004,0.069
			c0,0-4.266-0.224-8.531-0.448c-4.264-0.258-8.527-0.516-8.527-0.516L8.95,37.964z"/>
		<path id="XMLID_592_" style="fill:#282828;stroke:#282828;stroke-width:0.5281;stroke-miterlimit:10;" d="M28.347,0.282
			c-0.383,3.679-0.843,7.351-1.163,11.035l-0.971,11.049l-0.971,11.049l-0.062,0.702l-1.802-1.993l-3.751-4.147l-0.014-0.016
			c-0.309-0.341-0.876-0.143-0.905,0.316l0,0c-0.103,1.358-0.202,2.716-0.309,4.073c-0.483,6.094-1.017,12.181-1.213,18.292
			c-0.003,0.078-0.005,0.157-0.008,0.235c-0.047,2.52-0.015,3.762-0.015,3.762l0.057,0.052l2.03-25.829
			c0.061-0.229,0.196-0.207,0.298-0.097l3.337,3.779l1.85,2.095c0,0,0.47,0.524,0.47,0.525c0.156,0.174,0.471,0.073,0.55-0.122
			c0.032-0.079,0.039-0.165,0.045-0.25c0.065-0.865,0.131-1.73,0.196-2.595c0.07-0.925,0.14-1.85,0.21-2.775
			c0.082-1.083,0.164-2.166,0.246-3.249c0.068-0.895,0.136-1.79,0.203-2.685c0.027-0.361,0.055-0.722,0.082-1.083l1.676-22.117
			L28.347,0.282z"/>
		<path id="XMLID_233_" style="fill:#FFFFFF;stroke:#FFFFFF;stroke-width:0.5281;stroke-miterlimit:10;" d="M9.008,40.94
			c0,0,1.173-0.096,2.92-0.098c0.872,0.022,1.894-0.008,2.981,0.059c1.087,0.062,2.247,0.129,3.407,0.195
			c1.156,0.119,2.311,0.238,3.394,0.349c1.083,0.109,2.088,0.298,2.952,0.416c1.725,0.28,2.868,0.559,2.868,0.559l-0.005,0.069
			c0,0-4.632-0.353-9.264-0.706c-4.629-0.387-9.258-0.774-9.258-0.774L9.008,40.94z"/>
		<path id="XMLID_227_" style="fill:#FFFFFF;stroke:#FFFFFF;stroke-width:0.5281;stroke-miterlimit:10;" d="M16.987,27.247
			c0,0-0.002,0.434-0.02,1.192c-0.024,0.758-0.041,1.841-0.093,3.14c-0.047,1.299-0.115,2.813-0.201,4.434
			c-0.045,0.811-0.092,1.648-0.14,2.499c-0.053,0.851-0.107,1.715-0.161,2.579c-0.061,0.864-0.122,1.728-0.182,2.578
			c-0.057,0.85-0.13,1.686-0.192,2.496c-0.129,1.619-0.262,3.128-0.388,4.422c-0.12,1.294-0.248,2.37-0.324,3.124
			c-0.083,0.754-0.138,1.184-0.138,1.184s0.002-0.434,0.02-1.192c0.024-0.758,0.04-1.841,0.092-3.14
			c0.047-1.299,0.115-2.813,0.201-4.434c0.046-0.811,0.084-1.649,0.14-2.499c0.053-0.851,0.107-1.715,0.161-2.579
			c0.061-0.864,0.122-1.728,0.182-2.578c0.066-0.85,0.13-1.686,0.192-2.496c0.129-1.619,0.263-3.128,0.388-4.422
			c0.121-1.294,0.247-2.37,0.324-3.124C16.932,27.678,16.987,27.247,16.987,27.247z"/>
	</g>
</g>
</svg>
