<?xml version="1.0" encoding="iso-8859-1"?>
<!-- Generator: Adobe Illustrator 19.0.0, SVG Export Plug-In . SVG Version: 6.00 Build 0)  -->
<svg version="1.1" xmlns="http://www.w3.org/2000/svg" xmlns:xlink="http://www.w3.org/1999/xlink" x="0px" y="0px"
	 viewBox="0 0 111.249 112.04" style="enable-background:new 0 0 111.249 112.04;" xml:space="preserve">
<g id="Layer_3">
	<g id="XMLID_5_">
		<path id="XMLID_305_" style="fill:#80CA00;" d="M84.847,112.04H26.403C11.821,112.04,0,100.22,0,85.638V26.403
			C0,11.821,11.821,0,26.403,0h58.444c14.582,0,26.403,11.821,26.403,26.403v59.235C111.249,100.22,99.429,112.04,84.847,112.04z"/>
		<g id="XMLID_2_">
			<path id="XMLID_82_" style="fill:#FFFFFF;" d="M81,82.907c-5,5.262-13.905,8.46-22.47,8.46
				c-18.672,0-33.915-15.191-33.915-33.863s15.269-33.863,33.941-33.863c8.565,0,17.443,3.198,22.443,8.46v-2.092
				c-5-4.976-13.997-7.964-22.47-7.964c-19.553,0-35.512,15.907-35.512,35.46s15.986,35.46,35.538,35.46
				C67.029,92.964,76,89.976,81,85V82.907z"/>
			<g id="XMLID_48_">
				<path id="XMLID_68_" style="fill:#FFFFFF;" d="M33.719,73.369c0,0,1.756-0.209,4.377-0.292c1.308-0.004,2.84-0.1,4.472-0.039
					c1.632,0.052,3.025,0.138,4.766,0.193c1.736,0.141,3.822,0.253,5.449,0.385c1.628,0.129,3.139,0.391,4.439,0.544
					c2.595,0.378,4.317,0.781,4.317,0.781l-0.006,0.112c0,0-6.957-0.365-13.913-0.73c-6.953-0.421-13.907-0.842-13.907-0.842
					L33.719,73.369z"/>
				<path id="XMLID_67_" style="fill:#282828;" d="M65.352,12.05c-0.625,5.999-1.375,11.989-1.896,17.996l-1.584,18.019
					l-1.584,18.019l-0.101,1.145l-2.939-3.25l-6.117-6.763l-0.024-0.026c-0.503-0.556-1.428-0.234-1.476,0.515v0
					c-0.169,2.214-0.329,4.429-0.504,6.643c-0.788,9.938-1.659,19.866-1.977,29.831c-0.004,0.128-0.008,0.255-0.013,0.383
					c-0.076,4.11-0.025,6.136-0.025,6.136l0.093,0.085l3.311-42.124c0.1-0.374,0.32-0.338,0.486-0.158l5.442,6.163l3.017,3.417
					l0.767,0.856c0.255,0.284,0.768,0.119,0.897-0.2c0.052-0.129,0.063-0.269,0.074-0.408c0.107-1.41,0.213-2.821,0.32-4.231
					c0.114-1.508,0.229-3.017,0.343-4.525c0.134-1.766,0.268-3.533,0.402-5.299c0.111-1.46,0.221-2.919,0.332-4.379
					c0.045-0.589,0.089-1.177,0.134-1.766l2.734-36.07L65.352,12.05z"/>
				<path id="XMLID_51_" style="fill:#FFFFFF;" d="M33.813,78.223c0,0,1.912-0.156,4.763-0.16c1.422,0.035,3.089-0.014,4.861,0.096
					c1.773,0.101,3.664,0.21,5.556,0.318c1.884,0.194,3.769,0.388,5.536,0.57c1.767,0.178,3.405,0.486,4.814,0.678
					c2.813,0.457,4.677,0.912,4.677,0.912l-0.009,0.112c0,0-7.554-0.576-15.108-1.151c-7.549-0.631-15.099-1.263-15.099-1.263
					L33.813,78.223z"/>
				<path id="XMLID_49_" style="fill:#FFFFFF;" d="M46.826,55.893c0,0-0.003,0.707-0.032,1.944c-0.039,1.236-0.067,3.003-0.152,5.12
					c-0.076,2.118-0.187,4.587-0.328,7.232c-0.074,1.322-0.15,2.688-0.228,4.076c-0.087,1.387-0.174,2.797-0.262,4.206
					c-0.099,1.409-0.199,2.817-0.296,4.204c-0.092,1.387-0.213,2.75-0.313,4.07c-0.21,2.64-0.428,5.102-0.633,7.211
					c-0.196,2.11-0.404,3.865-0.529,5.095c-0.135,1.229-0.226,1.931-0.226,1.931s0.003-0.707,0.032-1.944
					c0.039-1.236,0.066-3.003,0.151-5.12c0.076-2.118,0.187-4.587,0.328-7.232c0.075-1.322,0.137-2.689,0.229-4.076
					c0.087-1.387,0.175-2.797,0.263-4.206c0.1-1.409,0.199-2.817,0.297-4.204c0.107-1.386,0.212-2.75,0.314-4.07
					c0.211-2.64,0.428-5.102,0.633-7.211c0.197-2.11,0.403-3.865,0.528-5.095C46.736,56.595,46.826,55.893,46.826,55.893z"/>
			</g>
		</g>
	</g>
</g>
<g id="Layer_1">
</g>
</svg>
