<?xml version="1.0" encoding="iso-8859-1"?>
<!-- Generator: Adobe Illustrator 19.0.0, SVG Export Plug-In . SVG Version: 6.00 Build 0)  -->
<svg version="1.1" id="Layer_1" xmlns="http://www.w3.org/2000/svg" xmlns:xlink="http://www.w3.org/1999/xlink" x="0px" y="0px"
	 viewBox="0 0 262.974 62.757" style="enable-background:new 0 0 262.974 62.757;" xml:space="preserve">
<g id="XMLID_119_">
	<g id="XMLID_146_">
		<g id="XMLID_20_">
			<path id="XMLID_22_" style="fill:#282828;" d="M234.491,62.28H31.7c-15.403,0-28.006-12.602-28.006-28.006V31.7
				c0-15.403,12.602-28.006,28.006-28.006h202.791c15.403,0,28.006,12.602,28.006,28.006v2.574
				C262.497,49.678,249.894,62.28,234.491,62.28z"/>
			<path id="XMLID_21_" style="fill:none;stroke:#282828;stroke-width:0.9546;stroke-miterlimit:10;" d="M234.491,62.28H31.7
				c-15.403,0-28.006-12.602-28.006-28.006V31.7c0-15.403,12.602-28.006,28.006-28.006h202.791
				c15.403,0,28.006,12.602,28.006,28.006v2.574C262.497,49.678,249.894,62.28,234.491,62.28z"/>
		</g>
		<g id="XMLID_17_">
			<path id="XMLID_19_" style="fill:#FFFFFF;" d="M231.273,59.062H28.483c-15.403,0-28.006-12.602-28.006-28.006v-2.574
				c0-15.403,12.602-28.006,28.006-28.006h202.791c15.403,0,28.006,12.602,28.006,28.006v2.574
				C259.279,46.46,246.676,59.062,231.273,59.062z"/>
			<path id="XMLID_18_" style="fill:none;stroke:#282828;stroke-width:0.9546;stroke-miterlimit:10;" d="M231.273,59.062H28.483
				c-15.403,0-28.006-12.602-28.006-28.006v-2.574c0-15.403,12.602-28.006,28.006-28.006h202.791
				c15.403,0,28.006,12.602,28.006,28.006v2.574C259.279,46.46,246.676,59.062,231.273,59.062z"/>
		</g>
	</g>
</g>
</svg>
