<?xml version="1.0" encoding="iso-8859-1"?>
<!-- Generator: Adobe Illustrator 19.0.0, SVG Export Plug-In . SVG Version: 6.00 Build 0)  -->
<svg version="1.1" id="Layer_1" xmlns="http://www.w3.org/2000/svg" xmlns:xlink="http://www.w3.org/1999/xlink" x="0px" y="0px"
	 viewBox="0 0 45.999 47.317" style="enable-background:new 0 0 45.999 47.317;" xml:space="preserve">
<path id="XMLID_477_" style="fill:#282828;" d="M34.838,21.525c3.341,0,6.683,0.012,10.024-0.012
	c0.565-0.004,0.866,0.132,0.93,0.731c0.652,6.021-0.14,11.738-3.908,16.682c-3.93,5.156-9.263,7.843-15.708,8.313
	c-6.403,0.467-12.218-1.162-17.217-5.229c-6.395-5.204-9.572-12.008-8.862-20.234C0.968,11.689,7.69,3.706,17.55,0.967
	c8.025-2.229,15.379-0.605,21.787,4.872c0.606,0.518,0.612,0.832,0.051,1.372c-1.146,1.104-2.242,2.261-3.329,3.424
	c-0.344,0.368-0.565,0.421-0.965,0.056c-6.668-6.077-17.784-5.567-23.915,1.631c-3.619,4.249-4.907,9.202-3.826,14.67
	c1.385,7.001,5.602,11.595,12.494,13.318c5.568,1.392,10.85,0.472,15.332-3.474c2.5-2.201,3.631-5.081,4.157-8.269
	c0.129-0.783-0.463-0.578-0.848-0.579c-4.434-0.013-8.868-0.013-13.302-0.016c-1.218-0.001-1.219-0.001-1.219-1.194
	c-0.001-1.436,0.035-2.874-0.015-4.309c-0.026-0.738,0.209-0.968,0.956-0.96C28.218,21.546,31.528,21.525,34.838,21.525z"/>
</svg>
